<?xml version="1.0" encoding="utf-8" standalone="no"?>
<!DOCTYPE svg PUBLIC "-//W3C//DTD SVG 1.1//EN"
  "http://www.w3.org/Graphics/SVG/1.1/DTD/svg11.dtd">
<svg height="598.32pt" version="1.1" viewBox="0 0 659.52 598.32" width="659.52pt" xmlns="http://www.w3.org/2000/svg" xmlns:xlink="http://www.w3.org/1999/xlink">
 <metadata>
  <rdf:RDF xmlns:cc="http://creativecommons.org/ns#" xmlns:dc="http://purl.org/dc/elements/1.1/" xmlns:rdf="http://www.w3.org/1999/02/22-rdf-syntax-ns#">
   <cc:Work>
    <dc:type rdf:resource="http://purl.org/dc/dcmitype/StillImage"/>
    <dc:date>2022-12-01T11:44:28.782900</dc:date>
    <dc:format>image/svg+xml</dc:format>
    <dc:creator>
     <cc:Agent>
      <dc:title>Matplotlib v3.4.2, https://matplotlib.org/</dc:title>
     </cc:Agent>
    </dc:creator>
   </cc:Work>
  </rdf:RDF>
 </metadata>
 <defs>
  <style type="text/css">*{stroke-linecap:butt;stroke-linejoin:round;}</style>
 </defs>
 <g id="figure_1">
  <g id="patch_1">
   <path d="M 0 598.32 
L 659.52 598.32 
L 659.52 0 
L 0 0 
z
" style="fill:#ffffff;"/>
  </g>
  <g id="axes_1">
   <g id="patch_2">
    <path d="M 82.44 532.5048 
L 593.568 532.5048 
L 593.568 71.7984 
L 82.44 71.7984 
z
" style="fill:#ffffff;"/>
   </g>
   <g id="matplotlib.axis_1">
    <g id="xtick_1">
     <g id="line2d_1">
      <defs>
       <path d="M 0 0 
L 0 3.5 
" id="m03ff20fe78" style="stroke:#000000;stroke-width:0.8;"/>
      </defs>
      <g>
       <use style="stroke:#000000;stroke-width:0.8;" x="105.673091" xlink:href="#m03ff20fe78" y="532.5048"/>
      </g>
     </g>
     <g id="text_1">
      <!-- 0 -->
      <g transform="translate(102.491841 547.103238)scale(0.1 -0.1)">
       <defs>
        <path d="M 2034 4250 
Q 1547 4250 1301 3770 
Q 1056 3291 1056 2328 
Q 1056 1369 1301 889 
Q 1547 409 2034 409 
Q 2525 409 2770 889 
Q 3016 1369 3016 2328 
Q 3016 3291 2770 3770 
Q 2525 4250 2034 4250 
z
M 2034 4750 
Q 2819 4750 3233 4129 
Q 3647 3509 3647 2328 
Q 3647 1150 3233 529 
Q 2819 -91 2034 -91 
Q 1250 -91 836 529 
Q 422 1150 422 2328 
Q 422 3509 836 4129 
Q 1250 4750 2034 4750 
z
" id="DejaVuSans-30" transform="scale(0.015625)"/>
       </defs>
       <use xlink:href="#DejaVuSans-30"/>
      </g>
     </g>
    </g>
    <g id="xtick_2">
     <g id="line2d_2">
      <g>
       <use style="stroke:#000000;stroke-width:0.8;" x="198.605455" xlink:href="#m03ff20fe78" y="532.5048"/>
      </g>
     </g>
     <g id="text_2">
      <!-- 1 -->
      <g transform="translate(195.424205 547.103238)scale(0.1 -0.1)">
       <defs>
        <path d="M 794 531 
L 1825 531 
L 1825 4091 
L 703 3866 
L 703 4441 
L 1819 4666 
L 2450 4666 
L 2450 531 
L 3481 531 
L 3481 0 
L 794 0 
L 794 531 
z
" id="DejaVuSans-31" transform="scale(0.015625)"/>
       </defs>
       <use xlink:href="#DejaVuSans-31"/>
      </g>
     </g>
    </g>
    <g id="xtick_3">
     <g id="line2d_3">
      <g>
       <use style="stroke:#000000;stroke-width:0.8;" x="291.537818" xlink:href="#m03ff20fe78" y="532.5048"/>
      </g>
     </g>
     <g id="text_3">
      <!-- 2 -->
      <g transform="translate(288.356568 547.103238)scale(0.1 -0.1)">
       <defs>
        <path d="M 1228 531 
L 3431 531 
L 3431 0 
L 469 0 
L 469 531 
Q 828 903 1448 1529 
Q 2069 2156 2228 2338 
Q 2531 2678 2651 2914 
Q 2772 3150 2772 3378 
Q 2772 3750 2511 3984 
Q 2250 4219 1831 4219 
Q 1534 4219 1204 4116 
Q 875 4013 500 3803 
L 500 4441 
Q 881 4594 1212 4672 
Q 1544 4750 1819 4750 
Q 2544 4750 2975 4387 
Q 3406 4025 3406 3419 
Q 3406 3131 3298 2873 
Q 3191 2616 2906 2266 
Q 2828 2175 2409 1742 
Q 1991 1309 1228 531 
z
" id="DejaVuSans-32" transform="scale(0.015625)"/>
       </defs>
       <use xlink:href="#DejaVuSans-32"/>
      </g>
     </g>
    </g>
    <g id="xtick_4">
     <g id="line2d_4">
      <g>
       <use style="stroke:#000000;stroke-width:0.8;" x="384.470182" xlink:href="#m03ff20fe78" y="532.5048"/>
      </g>
     </g>
     <g id="text_4">
      <!-- 3 -->
      <g transform="translate(381.288932 547.103238)scale(0.1 -0.1)">
       <defs>
        <path d="M 2597 2516 
Q 3050 2419 3304 2112 
Q 3559 1806 3559 1356 
Q 3559 666 3084 287 
Q 2609 -91 1734 -91 
Q 1441 -91 1130 -33 
Q 819 25 488 141 
L 488 750 
Q 750 597 1062 519 
Q 1375 441 1716 441 
Q 2309 441 2620 675 
Q 2931 909 2931 1356 
Q 2931 1769 2642 2001 
Q 2353 2234 1838 2234 
L 1294 2234 
L 1294 2753 
L 1863 2753 
Q 2328 2753 2575 2939 
Q 2822 3125 2822 3475 
Q 2822 3834 2567 4026 
Q 2313 4219 1838 4219 
Q 1578 4219 1281 4162 
Q 984 4106 628 3988 
L 628 4550 
Q 988 4650 1302 4700 
Q 1616 4750 1894 4750 
Q 2613 4750 3031 4423 
Q 3450 4097 3450 3541 
Q 3450 3153 3228 2886 
Q 3006 2619 2597 2516 
z
" id="DejaVuSans-33" transform="scale(0.015625)"/>
       </defs>
       <use xlink:href="#DejaVuSans-33"/>
      </g>
     </g>
    </g>
    <g id="xtick_5">
     <g id="line2d_5">
      <g>
       <use style="stroke:#000000;stroke-width:0.8;" x="477.402545" xlink:href="#m03ff20fe78" y="532.5048"/>
      </g>
     </g>
     <g id="text_5">
      <!-- 4 -->
      <g transform="translate(474.221295 547.103238)scale(0.1 -0.1)">
       <defs>
        <path d="M 2419 4116 
L 825 1625 
L 2419 1625 
L 2419 4116 
z
M 2253 4666 
L 3047 4666 
L 3047 1625 
L 3713 1625 
L 3713 1100 
L 3047 1100 
L 3047 0 
L 2419 0 
L 2419 1100 
L 313 1100 
L 313 1709 
L 2253 4666 
z
" id="DejaVuSans-34" transform="scale(0.015625)"/>
       </defs>
       <use xlink:href="#DejaVuSans-34"/>
      </g>
     </g>
    </g>
    <g id="xtick_6">
     <g id="line2d_6">
      <g>
       <use style="stroke:#000000;stroke-width:0.8;" x="570.334909" xlink:href="#m03ff20fe78" y="532.5048"/>
      </g>
     </g>
     <g id="text_6">
      <!-- 5 -->
      <g transform="translate(567.153659 547.103238)scale(0.1 -0.1)">
       <defs>
        <path d="M 691 4666 
L 3169 4666 
L 3169 4134 
L 1269 4134 
L 1269 2991 
Q 1406 3038 1543 3061 
Q 1681 3084 1819 3084 
Q 2600 3084 3056 2656 
Q 3513 2228 3513 1497 
Q 3513 744 3044 326 
Q 2575 -91 1722 -91 
Q 1428 -91 1123 -41 
Q 819 9 494 109 
L 494 744 
Q 775 591 1075 516 
Q 1375 441 1709 441 
Q 2250 441 2565 725 
Q 2881 1009 2881 1497 
Q 2881 1984 2565 2268 
Q 2250 2553 1709 2553 
Q 1456 2553 1204 2497 
Q 953 2441 691 2322 
L 691 4666 
z
" id="DejaVuSans-35" transform="scale(0.015625)"/>
       </defs>
       <use xlink:href="#DejaVuSans-35"/>
      </g>
     </g>
    </g>
    <g id="text_7">
     <!-- time -->
     <g transform="translate(326.707906 560.781363)scale(0.1 -0.1)">
      <defs>
       <path d="M 1172 4494 
L 1172 3500 
L 2356 3500 
L 2356 3053 
L 1172 3053 
L 1172 1153 
Q 1172 725 1289 603 
Q 1406 481 1766 481 
L 2356 481 
L 2356 0 
L 1766 0 
Q 1100 0 847 248 
Q 594 497 594 1153 
L 594 3053 
L 172 3053 
L 172 3500 
L 594 3500 
L 594 4494 
L 1172 4494 
z
" id="DejaVuSans-74" transform="scale(0.015625)"/>
       <path d="M 603 3500 
L 1178 3500 
L 1178 0 
L 603 0 
L 603 3500 
z
M 603 4863 
L 1178 4863 
L 1178 4134 
L 603 4134 
L 603 4863 
z
" id="DejaVuSans-69" transform="scale(0.015625)"/>
       <path d="M 3328 2828 
Q 3544 3216 3844 3400 
Q 4144 3584 4550 3584 
Q 5097 3584 5394 3201 
Q 5691 2819 5691 2113 
L 5691 0 
L 5113 0 
L 5113 2094 
Q 5113 2597 4934 2840 
Q 4756 3084 4391 3084 
Q 3944 3084 3684 2787 
Q 3425 2491 3425 1978 
L 3425 0 
L 2847 0 
L 2847 2094 
Q 2847 2600 2669 2842 
Q 2491 3084 2119 3084 
Q 1678 3084 1418 2786 
Q 1159 2488 1159 1978 
L 1159 0 
L 581 0 
L 581 3500 
L 1159 3500 
L 1159 2956 
Q 1356 3278 1631 3431 
Q 1906 3584 2284 3584 
Q 2666 3584 2933 3390 
Q 3200 3197 3328 2828 
z
" id="DejaVuSans-6d" transform="scale(0.015625)"/>
       <path d="M 3597 1894 
L 3597 1613 
L 953 1613 
Q 991 1019 1311 708 
Q 1631 397 2203 397 
Q 2534 397 2845 478 
Q 3156 559 3463 722 
L 3463 178 
Q 3153 47 2828 -22 
Q 2503 -91 2169 -91 
Q 1331 -91 842 396 
Q 353 884 353 1716 
Q 353 2575 817 3079 
Q 1281 3584 2069 3584 
Q 2775 3584 3186 3129 
Q 3597 2675 3597 1894 
z
M 3022 2063 
Q 3016 2534 2758 2815 
Q 2500 3097 2075 3097 
Q 1594 3097 1305 2825 
Q 1016 2553 972 2059 
L 3022 2063 
z
" id="DejaVuSans-65" transform="scale(0.015625)"/>
      </defs>
      <use xlink:href="#DejaVuSans-74"/>
      <use x="39.208984" xlink:href="#DejaVuSans-69"/>
      <use x="66.992188" xlink:href="#DejaVuSans-6d"/>
      <use x="164.404297" xlink:href="#DejaVuSans-65"/>
     </g>
    </g>
   </g>
   <g id="matplotlib.axis_2">
    <g id="ytick_1">
     <g id="line2d_7">
      <defs>
       <path d="M 0 0 
L -3.5 0 
" id="m1fca036bb3" style="stroke:#000000;stroke-width:0.8;"/>
      </defs>
      <g>
       <use style="stroke:#000000;stroke-width:0.8;" x="82.44" xlink:href="#m1fca036bb3" y="511.5636"/>
      </g>
     </g>
     <g id="text_8">
      <!-- 0.0 -->
      <g transform="translate(59.536875 515.362819)scale(0.1 -0.1)">
       <defs>
        <path d="M 684 794 
L 1344 794 
L 1344 0 
L 684 0 
L 684 794 
z
" id="DejaVuSans-2e" transform="scale(0.015625)"/>
       </defs>
       <use xlink:href="#DejaVuSans-30"/>
       <use x="63.623047" xlink:href="#DejaVuSans-2e"/>
       <use x="95.410156" xlink:href="#DejaVuSans-30"/>
      </g>
     </g>
    </g>
    <g id="ytick_2">
     <g id="line2d_8">
      <g>
       <use style="stroke:#000000;stroke-width:0.8;" x="82.44" xlink:href="#m1fca036bb3" y="427.7988"/>
      </g>
     </g>
     <g id="text_9">
      <!-- 0.2 -->
      <g transform="translate(59.536875 431.598019)scale(0.1 -0.1)">
       <use xlink:href="#DejaVuSans-30"/>
       <use x="63.623047" xlink:href="#DejaVuSans-2e"/>
       <use x="95.410156" xlink:href="#DejaVuSans-32"/>
      </g>
     </g>
    </g>
    <g id="ytick_3">
     <g id="line2d_9">
      <g>
       <use style="stroke:#000000;stroke-width:0.8;" x="82.44" xlink:href="#m1fca036bb3" y="344.034"/>
      </g>
     </g>
     <g id="text_10">
      <!-- 0.4 -->
      <g transform="translate(59.536875 347.833219)scale(0.1 -0.1)">
       <use xlink:href="#DejaVuSans-30"/>
       <use x="63.623047" xlink:href="#DejaVuSans-2e"/>
       <use x="95.410156" xlink:href="#DejaVuSans-34"/>
      </g>
     </g>
    </g>
    <g id="ytick_4">
     <g id="line2d_10">
      <g>
       <use style="stroke:#000000;stroke-width:0.8;" x="82.44" xlink:href="#m1fca036bb3" y="260.2692"/>
      </g>
     </g>
     <g id="text_11">
      <!-- 0.6 -->
      <g transform="translate(59.536875 264.068419)scale(0.1 -0.1)">
       <defs>
        <path d="M 2113 2584 
Q 1688 2584 1439 2293 
Q 1191 2003 1191 1497 
Q 1191 994 1439 701 
Q 1688 409 2113 409 
Q 2538 409 2786 701 
Q 3034 994 3034 1497 
Q 3034 2003 2786 2293 
Q 2538 2584 2113 2584 
z
M 3366 4563 
L 3366 3988 
Q 3128 4100 2886 4159 
Q 2644 4219 2406 4219 
Q 1781 4219 1451 3797 
Q 1122 3375 1075 2522 
Q 1259 2794 1537 2939 
Q 1816 3084 2150 3084 
Q 2853 3084 3261 2657 
Q 3669 2231 3669 1497 
Q 3669 778 3244 343 
Q 2819 -91 2113 -91 
Q 1303 -91 875 529 
Q 447 1150 447 2328 
Q 447 3434 972 4092 
Q 1497 4750 2381 4750 
Q 2619 4750 2861 4703 
Q 3103 4656 3366 4563 
z
" id="DejaVuSans-36" transform="scale(0.015625)"/>
       </defs>
       <use xlink:href="#DejaVuSans-30"/>
       <use x="63.623047" xlink:href="#DejaVuSans-2e"/>
       <use x="95.410156" xlink:href="#DejaVuSans-36"/>
      </g>
     </g>
    </g>
    <g id="ytick_5">
     <g id="line2d_11">
      <g>
       <use style="stroke:#000000;stroke-width:0.8;" x="82.44" xlink:href="#m1fca036bb3" y="176.5044"/>
      </g>
     </g>
     <g id="text_12">
      <!-- 0.8 -->
      <g transform="translate(59.536875 180.303619)scale(0.1 -0.1)">
       <defs>
        <path d="M 2034 2216 
Q 1584 2216 1326 1975 
Q 1069 1734 1069 1313 
Q 1069 891 1326 650 
Q 1584 409 2034 409 
Q 2484 409 2743 651 
Q 3003 894 3003 1313 
Q 3003 1734 2745 1975 
Q 2488 2216 2034 2216 
z
M 1403 2484 
Q 997 2584 770 2862 
Q 544 3141 544 3541 
Q 544 4100 942 4425 
Q 1341 4750 2034 4750 
Q 2731 4750 3128 4425 
Q 3525 4100 3525 3541 
Q 3525 3141 3298 2862 
Q 3072 2584 2669 2484 
Q 3125 2378 3379 2068 
Q 3634 1759 3634 1313 
Q 3634 634 3220 271 
Q 2806 -91 2034 -91 
Q 1263 -91 848 271 
Q 434 634 434 1313 
Q 434 1759 690 2068 
Q 947 2378 1403 2484 
z
M 1172 3481 
Q 1172 3119 1398 2916 
Q 1625 2713 2034 2713 
Q 2441 2713 2670 2916 
Q 2900 3119 2900 3481 
Q 2900 3844 2670 4047 
Q 2441 4250 2034 4250 
Q 1625 4250 1398 4047 
Q 1172 3844 1172 3481 
z
" id="DejaVuSans-38" transform="scale(0.015625)"/>
       </defs>
       <use xlink:href="#DejaVuSans-30"/>
       <use x="63.623047" xlink:href="#DejaVuSans-2e"/>
       <use x="95.410156" xlink:href="#DejaVuSans-38"/>
      </g>
     </g>
    </g>
    <g id="ytick_6">
     <g id="line2d_12">
      <g>
       <use style="stroke:#000000;stroke-width:0.8;" x="82.44" xlink:href="#m1fca036bb3" y="92.7396"/>
      </g>
     </g>
     <g id="text_13">
      <!-- 1.0 -->
      <g transform="translate(59.536875 96.538819)scale(0.1 -0.1)">
       <use xlink:href="#DejaVuSans-31"/>
       <use x="63.623047" xlink:href="#DejaVuSans-2e"/>
       <use x="95.410156" xlink:href="#DejaVuSans-30"/>
      </g>
     </g>
    </g>
    <g id="text_14">
     <!-- population -->
     <g transform="translate(53.457187 328.758631)rotate(-90)scale(0.1 -0.1)">
      <defs>
       <path d="M 1159 525 
L 1159 -1331 
L 581 -1331 
L 581 3500 
L 1159 3500 
L 1159 2969 
Q 1341 3281 1617 3432 
Q 1894 3584 2278 3584 
Q 2916 3584 3314 3078 
Q 3713 2572 3713 1747 
Q 3713 922 3314 415 
Q 2916 -91 2278 -91 
Q 1894 -91 1617 61 
Q 1341 213 1159 525 
z
M 3116 1747 
Q 3116 2381 2855 2742 
Q 2594 3103 2138 3103 
Q 1681 3103 1420 2742 
Q 1159 2381 1159 1747 
Q 1159 1113 1420 752 
Q 1681 391 2138 391 
Q 2594 391 2855 752 
Q 3116 1113 3116 1747 
z
" id="DejaVuSans-70" transform="scale(0.015625)"/>
       <path d="M 1959 3097 
Q 1497 3097 1228 2736 
Q 959 2375 959 1747 
Q 959 1119 1226 758 
Q 1494 397 1959 397 
Q 2419 397 2687 759 
Q 2956 1122 2956 1747 
Q 2956 2369 2687 2733 
Q 2419 3097 1959 3097 
z
M 1959 3584 
Q 2709 3584 3137 3096 
Q 3566 2609 3566 1747 
Q 3566 888 3137 398 
Q 2709 -91 1959 -91 
Q 1206 -91 779 398 
Q 353 888 353 1747 
Q 353 2609 779 3096 
Q 1206 3584 1959 3584 
z
" id="DejaVuSans-6f" transform="scale(0.015625)"/>
       <path d="M 544 1381 
L 544 3500 
L 1119 3500 
L 1119 1403 
Q 1119 906 1312 657 
Q 1506 409 1894 409 
Q 2359 409 2629 706 
Q 2900 1003 2900 1516 
L 2900 3500 
L 3475 3500 
L 3475 0 
L 2900 0 
L 2900 538 
Q 2691 219 2414 64 
Q 2138 -91 1772 -91 
Q 1169 -91 856 284 
Q 544 659 544 1381 
z
M 1991 3584 
L 1991 3584 
z
" id="DejaVuSans-75" transform="scale(0.015625)"/>
       <path d="M 603 4863 
L 1178 4863 
L 1178 0 
L 603 0 
L 603 4863 
z
" id="DejaVuSans-6c" transform="scale(0.015625)"/>
       <path d="M 2194 1759 
Q 1497 1759 1228 1600 
Q 959 1441 959 1056 
Q 959 750 1161 570 
Q 1363 391 1709 391 
Q 2188 391 2477 730 
Q 2766 1069 2766 1631 
L 2766 1759 
L 2194 1759 
z
M 3341 1997 
L 3341 0 
L 2766 0 
L 2766 531 
Q 2569 213 2275 61 
Q 1981 -91 1556 -91 
Q 1019 -91 701 211 
Q 384 513 384 1019 
Q 384 1609 779 1909 
Q 1175 2209 1959 2209 
L 2766 2209 
L 2766 2266 
Q 2766 2663 2505 2880 
Q 2244 3097 1772 3097 
Q 1472 3097 1187 3025 
Q 903 2953 641 2809 
L 641 3341 
Q 956 3463 1253 3523 
Q 1550 3584 1831 3584 
Q 2591 3584 2966 3190 
Q 3341 2797 3341 1997 
z
" id="DejaVuSans-61" transform="scale(0.015625)"/>
       <path d="M 3513 2113 
L 3513 0 
L 2938 0 
L 2938 2094 
Q 2938 2591 2744 2837 
Q 2550 3084 2163 3084 
Q 1697 3084 1428 2787 
Q 1159 2491 1159 1978 
L 1159 0 
L 581 0 
L 581 3500 
L 1159 3500 
L 1159 2956 
Q 1366 3272 1645 3428 
Q 1925 3584 2291 3584 
Q 2894 3584 3203 3211 
Q 3513 2838 3513 2113 
z
" id="DejaVuSans-6e" transform="scale(0.015625)"/>
      </defs>
      <use xlink:href="#DejaVuSans-70"/>
      <use x="63.476562" xlink:href="#DejaVuSans-6f"/>
      <use x="124.658203" xlink:href="#DejaVuSans-70"/>
      <use x="188.134766" xlink:href="#DejaVuSans-75"/>
      <use x="251.513672" xlink:href="#DejaVuSans-6c"/>
      <use x="279.296875" xlink:href="#DejaVuSans-61"/>
      <use x="340.576172" xlink:href="#DejaVuSans-74"/>
      <use x="379.785156" xlink:href="#DejaVuSans-69"/>
      <use x="407.568359" xlink:href="#DejaVuSans-6f"/>
      <use x="468.75" xlink:href="#DejaVuSans-6e"/>
     </g>
    </g>
   </g>
   <g id="line2d_13">
    <path clip-path="url(#pf7af973333)" d="M 105.673091 92.7396 
L 110.366645 112.867533 
L 115.060198 131.109058 
L 119.753752 147.686228 
L 124.447306 162.793815 
L 129.14086 176.602683 
L 133.834413 189.26275 
L 138.527967 200.905572 
L 143.221521 211.646616 
L 147.915074 221.587251 
L 152.608628 230.816486 
L 157.302182 239.412501 
L 161.995736 247.443982 
L 166.689289 254.971293 
L 171.382843 262.047505 
L 176.076397 268.719296 
L 180.76995 275.027737 
L 185.463504 281.008985 
L 190.157058 286.694887 
L 194.850612 292.113512 
L 199.544165 297.289616 
L 204.237719 302.245046 
L 208.931273 306.999103 
L 213.624826 311.568848 
L 218.31838 315.96938 
L 223.011934 320.214076 
L 227.705488 324.314802 
L 232.399041 328.282094 
L 237.092595 332.125326 
L 241.786149 335.852844 
L 246.479702 339.472096 
L 251.173256 342.989739 
L 255.86681 346.411735 
L 260.560364 349.743434 
L 265.253917 352.989646 
L 269.947471 356.154709 
L 274.641025 359.242542 
L 279.334579 362.256696 
L 284.028132 365.200398 
L 288.721686 368.076585 
L 293.41524 370.887946 
L 298.108793 373.63694 
L 302.802347 376.325831 
L 307.495901 378.956706 
L 312.189455 381.531496 
L 316.883008 384.051994 
L 321.576562 386.519868 
L 326.270116 388.936677 
L 330.963669 391.30388 
L 335.657223 393.622852 
L 340.350777 395.894884 
L 345.044331 398.1212 
L 349.737884 400.302959 
L 354.431438 402.441263 
L 359.124992 404.537161 
L 363.818545 406.591655 
L 368.512099 408.605705 
L 373.205653 410.58023 
L 377.899207 412.516116 
L 382.59276 414.414214 
L 387.286314 416.275344 
L 391.979868 418.1003 
L 396.673421 419.88985 
L 401.366975 421.644736 
L 406.060529 423.36568 
L 410.754083 425.05338 
L 415.447636 426.708517 
L 420.14119 428.331753 
L 424.834744 429.923731 
L 429.528298 431.485079 
L 434.221851 433.016408 
L 438.915405 434.518315 
L 443.608959 435.991383 
L 448.302512 437.43618 
L 452.996066 438.853262 
L 457.68962 440.243173 
L 462.383174 441.606442 
L 467.076727 442.943591 
L 471.770281 444.255127 
L 476.463835 445.541547 
L 481.157388 446.803338 
L 485.850942 448.040978 
L 490.544496 449.254933 
L 495.23805 450.44566 
L 499.931603 451.613607 
L 504.625157 452.759213 
L 509.318711 453.882908 
L 514.012264 454.985114 
L 518.705818 456.066244 
L 523.399372 457.126702 
L 528.092926 458.166885 
L 532.786479 459.187182 
L 537.480033 460.187975 
L 542.173587 461.169638 
L 546.86714 462.132537 
L 551.560694 463.077032 
L 556.254248 464.003475 
L 560.947802 464.912211 
L 565.641355 465.803581 
L 570.334909 466.677915 
" style="fill:none;stroke:#000000;stroke-dasharray:1.5,2.475;stroke-dashoffset:0;stroke-width:1.5;"/>
   </g>
   <g id="line2d_14">
    <path clip-path="url(#pf7af973333)" d="M 105.673091 511.5636 
L 110.366645 491.943734 
L 115.060198 475.128755 
L 119.753752 460.7641 
L 124.447306 448.539258 
L 129.14086 438.182312 
L 133.834413 429.455153 
L 138.527967 422.149293 
L 143.221521 416.082194 
L 147.915074 411.094047 
L 152.608628 407.044964 
L 157.302182 403.812496 
L 161.995736 401.289482 
L 166.689289 399.382146 
L 171.382843 398.00844 
L 176.076397 397.09659 
L 180.76995 396.583819 
L 185.463504 396.415231 
L 190.157058 396.542835 
L 194.850612 396.924685 
L 199.544165 397.524133 
L 204.237719 398.309167 
L 208.931273 399.251836 
L 213.624826 400.327747 
L 218.31838 401.515621 
L 223.011934 402.796905 
L 227.705488 404.155434 
L 232.399041 405.577134 
L 237.092595 407.049757 
L 241.786149 408.562661 
L 246.479702 410.106601 
L 251.173256 411.67356 
L 255.86681 413.256594 
L 260.560364 414.849697 
L 265.253917 416.447683 
L 269.947471 418.046083 
L 274.641025 419.641058 
L 279.334579 421.229315 
L 284.028132 422.808039 
L 288.721686 424.374835 
L 293.41524 425.927672 
L 298.108793 427.464838 
L 302.802347 428.9849 
L 307.495901 430.486663 
L 312.189455 431.969148 
L 316.883008 433.431557 
L 321.576562 434.873251 
L 326.270116 436.293731 
L 330.963669 437.692619 
L 335.657223 439.06964 
L 340.350777 440.424609 
L 345.044331 441.757421 
L 349.737884 443.068037 
L 354.431438 444.356475 
L 359.124992 445.622806 
L 363.818545 446.86714 
L 368.512099 448.089626 
L 373.205653 449.290442 
L 377.899207 450.469794 
L 382.59276 451.627908 
L 387.286314 452.765029 
L 391.979868 453.881419 
L 396.673421 454.977351 
L 401.366975 456.053106 
L 406.060529 457.108976 
L 410.754083 458.145259 
L 415.447636 459.162256 
L 420.14119 460.160271 
L 424.834744 461.139612 
L 429.528298 462.100586 
L 434.221851 463.043503 
L 438.915405 463.968669 
L 443.608959 464.87639 
L 448.302512 465.766972 
L 452.996066 466.640717 
L 457.68962 467.497923 
L 462.383174 468.338888 
L 467.076727 469.163906 
L 471.770281 469.973265 
L 476.463835 470.767253 
L 481.157388 471.546151 
L 485.850942 472.310237 
L 490.544496 473.059787 
L 495.23805 473.79507 
L 499.931603 474.516352 
L 504.625157 475.223894 
L 509.318711 475.917954 
L 514.012264 476.598786 
L 518.705818 477.266637 
L 523.399372 477.921752 
L 528.092926 478.564373 
L 532.786479 479.194733 
L 537.480033 479.813067 
L 542.173587 480.419601 
L 546.86714 481.014559 
L 551.560694 481.59816 
L 556.254248 482.170621 
L 560.947802 482.732153 
L 565.641355 483.282963 
L 570.334909 483.823256 
" style="fill:none;stroke:#000000;stroke-dasharray:5.55,2.4;stroke-dashoffset:0;stroke-width:1.5;"/>
   </g>
   <g id="line2d_15">
    <path clip-path="url(#pf7af973333)" d="M 105.673091 511.5636 
L 110.366645 511.063873 
L 115.060198 509.690924 
L 119.753752 507.61069 
L 124.447306 504.961841 
L 129.14086 501.860071 
L 133.834413 498.401738 
L 138.527967 494.666931 
L 143.221521 490.722072 
L 147.915074 486.622112 
L 152.608628 482.412382 
L 157.302182 478.130153 
L 161.995736 473.805962 
L 166.689289 469.464714 
L 171.382843 465.126619 
L 176.076397 460.807979 
L 180.76995 456.521848 
L 185.463504 452.278584 
L 190.157058 448.086313 
L 194.850612 443.951321 
L 199.544165 439.878378 
L 204.237719 435.87101 
L 208.931273 431.931722 
L 213.624826 428.062194 
L 218.31838 424.263432 
L 223.011934 420.535899 
L 227.705488 416.879626 
L 232.399041 413.294298 
L 237.092595 409.779329 
L 241.786149 406.333922 
L 246.479702 402.957117 
L 251.173256 399.647834 
L 255.86681 396.404903 
L 260.560364 393.227095 
L 265.253917 390.113136 
L 269.947471 387.061733 
L 274.641025 384.071579 
L 279.334579 381.141372 
L 284.028132 378.269814 
L 288.721686 375.455627 
L 293.41524 372.697551 
L 298.108793 369.994349 
L 302.802347 367.344812 
L 307.495901 364.747758 
L 312.189455 362.202034 
L 316.883008 359.706516 
L 321.576562 357.260109 
L 326.270116 354.86175 
L 330.963669 352.510402 
L 335.657223 350.205056 
L 340.350777 347.944735 
L 345.044331 345.728482 
L 349.737884 343.555372 
L 354.431438 341.424502 
L 359.124992 339.334992 
L 363.818545 337.285988 
L 368.512099 335.276656 
L 373.205653 333.306185 
L 377.899207 331.373784 
L 382.59276 329.478681 
L 387.286314 327.620124 
L 391.979868 325.79738 
L 396.673421 324.009731 
L 401.366975 322.256478 
L 406.060529 320.536939 
L 410.754083 318.850445 
L 415.447636 317.196345 
L 420.14119 315.574 
L 424.834744 313.982788 
L 429.528298 312.422098 
L 434.221851 310.891335 
L 438.915405 309.389914 
L 443.608959 307.917264 
L 448.302512 306.472825 
L 452.996066 305.056052 
L 457.68962 303.666407 
L 462.383174 302.303365 
L 467.076727 300.966412 
L 471.770281 299.655045 
L 476.463835 298.368769 
L 481.157388 297.107102 
L 485.850942 295.869569 
L 490.544496 294.655706 
L 495.23805 293.465058 
L 499.931603 292.297179 
L 504.625157 291.151631 
L 509.318711 290.027986 
L 514.012264 288.925823 
L 518.705818 287.84473 
L 523.399372 286.784304 
L 528.092926 285.744148 
L 532.786479 284.723874 
L 537.480033 283.723101 
L 542.173587 282.741456 
L 546.86714 281.778572 
L 551.560694 280.83409 
L 556.254248 279.907658 
L 560.947802 278.998931 
L 565.641355 278.10757 
L 570.334909 277.233242 
" style="fill:none;stroke:#000000;stroke-dasharray:9.6,2.4,1.5,2.4;stroke-dashoffset:0;stroke-width:1.5;"/>
   </g>
   <g id="line2d_16">
    <path clip-path="url(#pf7af973333)" d="M 105.673091 511.5636 
L 110.366645 511.55526 
L 115.060198 511.501663 
L 119.753752 511.369382 
L 124.447306 511.135486 
L 129.14086 510.785333 
L 133.834413 510.310759 
L 138.527967 509.708604 
L 143.221521 508.979518 
L 147.915074 508.126989 
L 152.608628 507.156568 
L 157.302182 506.075249 
L 161.995736 504.890974 
L 166.689289 503.612248 
L 171.382843 502.247836 
L 176.076397 500.806534 
L 180.76995 499.296996 
L 185.463504 497.727601 
L 190.157058 496.106366 
L 194.850612 494.440882 
L 199.544165 492.738273 
L 204.237719 491.005177 
L 208.931273 489.247739 
L 213.624826 487.471611 
L 218.31838 485.681968 
L 223.011934 483.88352 
L 227.705488 482.080538 
L 232.399041 480.276874 
L 237.092595 478.475987 
L 241.786149 476.680974 
L 246.479702 474.894586 
L 251.173256 473.119267 
L 255.86681 471.357167 
L 260.560364 469.610175 
L 265.253917 467.879935 
L 269.947471 466.167875 
L 274.641025 464.47522 
L 279.334579 462.803017 
L 284.028132 461.152149 
L 288.721686 459.523352 
L 293.41524 457.917231 
L 298.108793 456.334273 
L 302.802347 454.774858 
L 307.495901 453.239273 
L 312.189455 451.727722 
L 316.883008 450.240334 
L 321.576562 448.777172 
L 326.270116 447.338242 
L 330.963669 445.923499 
L 335.657223 444.532852 
L 340.350777 443.166172 
L 345.044331 441.823297 
L 349.737884 440.504032 
L 354.431438 439.20816 
L 359.124992 437.935442 
L 363.818545 436.685618 
L 368.512099 435.458414 
L 373.205653 434.253543 
L 377.899207 433.070707 
L 382.59276 431.909598 
L 387.286314 430.769902 
L 391.979868 429.651301 
L 396.673421 428.553468 
L 401.366975 427.47608 
L 406.060529 426.418805 
L 410.754083 425.381316 
L 415.447636 424.363283 
L 420.14119 423.364376 
L 424.834744 422.384269 
L 429.528298 421.422637 
L 434.221851 420.479155 
L 438.915405 419.553503 
L 443.608959 418.645363 
L 448.302512 417.754422 
L 452.996066 416.880369 
L 457.68962 416.022898 
L 462.383174 415.181705 
L 467.076727 414.356491 
L 471.770281 413.546964 
L 476.463835 412.752832 
L 481.157388 411.973809 
L 485.850942 411.209616 
L 490.544496 410.459974 
L 495.23805 409.724612 
L 499.931603 409.003263 
L 504.625157 408.295662 
L 509.318711 407.601552 
L 514.012264 406.920677 
L 518.705818 406.252789 
L 523.399372 405.597642 
L 528.092926 404.954994 
L 532.786479 404.32461 
L 537.480033 403.706256 
L 542.173587 403.099705 
L 546.86714 402.504732 
L 551.560694 401.921118 
L 556.254248 401.348646 
L 560.947802 400.787105 
L 565.641355 400.236287 
L 570.334909 399.695987 
" style="fill:none;stroke:#000000;stroke-dasharray:4.5,7.5,1.5,7.5;stroke-dashoffset:0;stroke-width:1.5;"/>
   </g>
   <g id="line2d_17">
    <path clip-path="url(#pf7af973333)" d="M 105.673091 511.5636 
L 110.366645 487.038768 
L 115.060198 466.020043 
L 119.753752 448.064225 
L 124.447306 432.783173 
L 129.14086 419.83699 
L 133.834413 408.928042 
L 138.527967 399.795717 
L 143.221521 392.211842 
L 147.915074 385.976659 
L 152.608628 380.915304 
L 157.302182 376.87472 
L 161.995736 373.720952 
L 166.689289 371.336782 
L 171.382843 369.619651 
L 176.076397 368.479838 
L 180.76995 367.838873 
L 185.463504 367.628138 
L 190.157058 367.787643 
L 194.850612 368.264957 
L 199.544165 369.014266 
L 204.237719 369.995559 
L 208.931273 371.173895 
L 213.624826 372.518784 
L 218.31838 374.003626 
L 223.011934 375.605231 
L 227.705488 377.303393 
L 232.399041 379.080517 
L 237.092595 380.921297 
L 241.786149 382.812426 
L 246.479702 384.742351 
L 251.173256 386.70105 
L 255.86681 388.679843 
L 260.560364 390.671221 
L 265.253917 392.668703 
L 269.947471 394.666704 
L 274.641025 396.660423 
L 279.334579 398.645744 
L 284.028132 400.619149 
L 288.721686 402.577644 
L 293.41524 404.51869 
L 298.108793 406.440148 
L 302.802347 408.340224 
L 307.495901 410.217429 
L 312.189455 412.070535 
L 316.883008 413.898546 
L 321.576562 415.700664 
L 326.270116 417.476264 
L 330.963669 419.224874 
L 335.657223 420.94615 
L 340.350777 422.639861 
L 345.044331 424.305876 
L 349.737884 425.944146 
L 354.431438 427.554694 
L 359.124992 429.137607 
L 363.818545 430.693025 
L 368.512099 432.221132 
L 373.205653 433.722152 
L 377.899207 435.196342 
L 382.59276 436.643985 
L 387.286314 438.065387 
L 391.979868 439.460874 
L 396.673421 440.830788 
L 401.366975 442.175483 
L 406.060529 443.495321 
L 410.754083 444.790674 
L 415.447636 446.06192 
L 420.14119 447.309439 
L 424.834744 448.533615 
L 429.528298 449.734833 
L 434.221851 450.913479 
L 438.915405 452.069936 
L 443.608959 453.204588 
L 448.302512 454.317815 
L 452.996066 455.409996 
L 457.68962 456.481504 
L 462.383174 457.53271 
L 467.076727 458.563982 
L 471.770281 459.575681 
L 476.463835 460.568166 
L 481.157388 461.541788 
L 485.850942 462.496897 
L 490.544496 463.433834 
L 495.23805 464.352937 
L 499.931603 465.25454 
L 504.625157 466.138968 
L 509.318711 467.006543 
L 514.012264 467.857582 
L 518.705818 468.692396 
L 523.399372 469.511291 
L 528.092926 470.314566 
L 532.786479 471.102517 
L 537.480033 471.875434 
L 542.173587 472.633601 
L 546.86714 473.377298 
L 551.560694 474.1068 
L 556.254248 474.822376 
L 560.947802 475.524291 
L 565.641355 476.212804 
L 570.334909 476.88817 
" style="fill:none;stroke:#0000ff;stroke-linecap:square;stroke-width:1.5;"/>
   </g>
   <g id="line2d_18">
    <path clip-path="url(#pf7af973333)" d="M 105.673091 511.5636 
L 110.366645 487.017917 
L 115.060198 465.865202 
L 119.753752 447.57868 
L 124.447306 431.712889 
L 129.14086 417.891323 
L 133.834413 405.795938 
L 138.527967 395.158227 
L 143.221521 385.751637 
L 147.915074 377.385132 
L 152.608628 369.897725 
L 157.302182 363.153843 
L 161.995736 357.039388 
L 166.689289 351.458401 
L 171.382843 346.330239 
L 176.076397 341.587173 
L 180.76995 337.172363 
L 185.463504 333.038141 
L 190.157058 329.144558 
L 194.850612 325.458161 
L 199.544165 321.950948 
L 204.237719 318.599501 
L 208.931273 315.384242 
L 213.624826 312.288812 
L 218.31838 309.299546 
L 223.011934 306.405032 
L 227.705488 303.595738 
L 232.399041 300.863701 
L 237.092595 298.202265 
L 241.786149 295.60586 
L 246.479702 293.069817 
L 251.173256 290.590218 
L 255.86681 288.163761 
L 260.560364 285.787657 
L 265.253917 283.459541 
L 269.947471 281.177391 
L 274.641025 278.939473 
L 279.334579 276.744286 
L 284.028132 274.590522 
L 288.721686 272.477025 
L 293.41524 270.402769 
L 298.108793 268.36683 
L 302.802347 266.368368 
L 307.495901 264.406611 
L 312.189455 262.480839 
L 316.883008 260.59038 
L 321.576562 258.734593 
L 326.270116 256.91287 
L 330.963669 255.124621 
L 335.657223 253.36928 
L 340.350777 251.646292 
L 345.044331 249.955117 
L 349.737884 248.295225 
L 354.431438 246.666094 
L 359.124992 245.067211 
L 363.818545 243.498069 
L 368.512099 241.958167 
L 373.205653 240.44701 
L 377.899207 238.964108 
L 382.59276 237.508979 
L 387.286314 236.081143 
L 391.979868 234.680126 
L 396.673421 233.30546 
L 401.366975 231.956681 
L 406.060529 230.633333 
L 410.754083 229.334964 
L 415.447636 228.061126 
L 420.14119 226.811379 
L 424.834744 225.585288 
L 429.528298 224.382425 
L 434.221851 223.202365 
L 438.915405 222.044692 
L 443.608959 220.908996 
L 448.302512 219.794871 
L 452.996066 218.701919 
L 457.68962 217.629748 
L 462.383174 216.577972 
L 467.076727 215.546211 
L 471.770281 214.534091 
L 476.463835 213.541245 
L 481.157388 212.567311 
L 485.850942 211.611936 
L 490.544496 210.674769 
L 495.23805 209.755468 
L 499.931603 208.853697 
L 504.625157 207.969123 
L 509.318711 207.101422 
L 514.012264 206.250276 
L 518.705818 205.415369 
L 523.399372 204.596395 
L 528.092926 203.793052 
L 532.786479 203.005042 
L 537.480033 202.232075 
L 542.173587 201.473864 
L 546.86714 200.730129 
L 551.560694 200.000596 
L 556.254248 199.284992 
L 560.947802 198.583054 
L 565.641355 197.894521 
L 570.334909 197.219137 
" style="fill:none;stroke:#ff0000;stroke-linecap:square;stroke-width:1.5;"/>
   </g>
   <g id="patch_3">
    <path d="M 82.44 532.5048 
L 82.44 71.7984 
" style="fill:none;stroke:#000000;stroke-linecap:square;stroke-linejoin:miter;stroke-width:0.8;"/>
   </g>
   <g id="patch_4">
    <path d="M 593.568 532.5048 
L 593.568 71.7984 
" style="fill:none;stroke:#000000;stroke-linecap:square;stroke-linejoin:miter;stroke-width:0.8;"/>
   </g>
   <g id="patch_5">
    <path d="M 82.44 532.5048 
L 593.568 532.5048 
" style="fill:none;stroke:#000000;stroke-linecap:square;stroke-linejoin:miter;stroke-width:0.8;"/>
   </g>
   <g id="patch_6">
    <path d="M 82.44 71.7984 
L 593.568 71.7984 
" style="fill:none;stroke:#000000;stroke-linecap:square;stroke-linejoin:miter;stroke-width:0.8;"/>
   </g>
   <g id="text_15">
    <!-- ${}^{18}$O $\to$ ${}^{16}$O model -->
    <g transform="translate(287.964 65.7984)scale(0.12 -0.12)">
     <defs>
      <path d="M 2522 4238 
Q 1834 4238 1429 3725 
Q 1025 3213 1025 2328 
Q 1025 1447 1429 934 
Q 1834 422 2522 422 
Q 3209 422 3611 934 
Q 4013 1447 4013 2328 
Q 4013 3213 3611 3725 
Q 3209 4238 2522 4238 
z
M 2522 4750 
Q 3503 4750 4090 4092 
Q 4678 3434 4678 2328 
Q 4678 1225 4090 567 
Q 3503 -91 2522 -91 
Q 1538 -91 948 565 
Q 359 1222 359 2328 
Q 359 3434 948 4092 
Q 1538 4750 2522 4750 
z
" id="DejaVuSans-4f" transform="scale(0.015625)"/>
      <path id="DejaVuSans-20" transform="scale(0.015625)"/>
      <path d="M 5050 2147 
L 5050 1866 
L 3822 638 
L 3447 1013 
L 4175 1741 
L 366 1741 
L 366 2272 
L 4175 2272 
L 3447 3000 
L 3822 3375 
L 5050 2147 
z
" id="DejaVuSans-2192" transform="scale(0.015625)"/>
      <path d="M 2906 2969 
L 2906 4863 
L 3481 4863 
L 3481 0 
L 2906 0 
L 2906 525 
Q 2725 213 2448 61 
Q 2172 -91 1784 -91 
Q 1150 -91 751 415 
Q 353 922 353 1747 
Q 353 2572 751 3078 
Q 1150 3584 1784 3584 
Q 2172 3584 2448 3432 
Q 2725 3281 2906 2969 
z
M 947 1747 
Q 947 1113 1208 752 
Q 1469 391 1925 391 
Q 2381 391 2643 752 
Q 2906 1113 2906 1747 
Q 2906 2381 2643 2742 
Q 2381 3103 1925 3103 
Q 1469 3103 1208 2742 
Q 947 2381 947 1747 
z
" id="DejaVuSans-64" transform="scale(0.015625)"/>
     </defs>
     <use transform="translate(0.957031 39.046875)scale(0.7)" xlink:href="#DejaVuSans-31"/>
     <use transform="translate(45.493164 39.046875)scale(0.7)" xlink:href="#DejaVuSans-38"/>
     <use transform="translate(92.763672 0.765625)" xlink:href="#DejaVuSans-4f"/>
     <use transform="translate(171.474609 0.765625)" xlink:href="#DejaVuSans-20"/>
     <use transform="translate(203.261719 0.765625)" xlink:href="#DejaVuSans-2192"/>
     <use transform="translate(287.050781 0.765625)" xlink:href="#DejaVuSans-20"/>
     <use transform="translate(319.794922 39.046875)scale(0.7)" xlink:href="#DejaVuSans-31"/>
     <use transform="translate(364.331055 39.046875)scale(0.7)" xlink:href="#DejaVuSans-36"/>
     <use transform="translate(411.601562 0.765625)" xlink:href="#DejaVuSans-4f"/>
     <use transform="translate(490.3125 0.765625)" xlink:href="#DejaVuSans-20"/>
     <use transform="translate(522.099609 0.765625)" xlink:href="#DejaVuSans-6d"/>
     <use transform="translate(619.511719 0.765625)" xlink:href="#DejaVuSans-6f"/>
     <use transform="translate(680.693359 0.765625)" xlink:href="#DejaVuSans-64"/>
     <use transform="translate(744.169922 0.765625)" xlink:href="#DejaVuSans-65"/>
     <use transform="translate(805.693359 0.765625)" xlink:href="#DejaVuSans-6c"/>
    </g>
   </g>
   <g id="legend_1">
    <g id="patch_7">
     <path d="M 504.168 167.86715 
L 586.568 167.86715 
Q 588.568 167.86715 588.568 165.86715 
L 588.568 78.7984 
Q 588.568 76.7984 586.568 76.7984 
L 504.168 76.7984 
Q 502.168 76.7984 502.168 78.7984 
L 502.168 165.86715 
Q 502.168 167.86715 504.168 167.86715 
z
" style="fill:#ffffff;opacity:0.8;stroke:#cccccc;stroke-linejoin:miter;"/>
    </g>
    <g id="line2d_19">
     <path d="M 506.168 84.896838 
L 526.168 84.896838 
" style="fill:none;stroke:#000000;stroke-dasharray:1.5,2.475;stroke-dashoffset:0;stroke-width:1.5;"/>
    </g>
    <g id="line2d_20"/>
    <g id="text_16">
     <!-- ${}^{18}$O -->
     <g transform="translate(534.168 88.396838)scale(0.1 -0.1)">
      <use transform="translate(0.957031 39.046875)scale(0.7)" xlink:href="#DejaVuSans-31"/>
      <use transform="translate(45.493164 39.046875)scale(0.7)" xlink:href="#DejaVuSans-38"/>
      <use transform="translate(92.763672 0.765625)" xlink:href="#DejaVuSans-4f"/>
     </g>
    </g>
    <g id="line2d_21">
     <path d="M 506.168 99.574963 
L 526.168 99.574963 
" style="fill:none;stroke:#000000;stroke-dasharray:5.55,2.4;stroke-dashoffset:0;stroke-width:1.5;"/>
    </g>
    <g id="line2d_22"/>
    <g id="text_17">
     <!-- ${}^{18}$O${}^{16}$O -->
     <g transform="translate(534.168 103.074963)scale(0.1 -0.1)">
      <use transform="translate(0.957031 39.046875)scale(0.7)" xlink:href="#DejaVuSans-31"/>
      <use transform="translate(45.493164 39.046875)scale(0.7)" xlink:href="#DejaVuSans-38"/>
      <use transform="translate(92.763672 0.765625)" xlink:href="#DejaVuSans-4f"/>
      <use transform="translate(172.431641 39.046875)scale(0.7)" xlink:href="#DejaVuSans-31"/>
      <use transform="translate(216.967773 39.046875)scale(0.7)" xlink:href="#DejaVuSans-36"/>
      <use transform="translate(264.238281 0.765625)" xlink:href="#DejaVuSans-4f"/>
     </g>
    </g>
    <g id="line2d_23">
     <path d="M 506.168 114.253088 
L 526.168 114.253088 
" style="fill:none;stroke:#000000;stroke-dasharray:9.6,2.4,1.5,2.4;stroke-dashoffset:0;stroke-width:1.5;"/>
    </g>
    <g id="line2d_24"/>
    <g id="text_18">
     <!-- ${}^{16}$O -->
     <g transform="translate(534.168 117.753088)scale(0.1 -0.1)">
      <use transform="translate(0.957031 39.046875)scale(0.7)" xlink:href="#DejaVuSans-31"/>
      <use transform="translate(45.493164 39.046875)scale(0.7)" xlink:href="#DejaVuSans-36"/>
      <use transform="translate(92.763672 0.765625)" xlink:href="#DejaVuSans-4f"/>
     </g>
    </g>
    <g id="line2d_25">
     <path d="M 506.168 128.931213 
L 526.168 128.931213 
" style="fill:none;stroke:#000000;stroke-dasharray:4.5,7.5,1.5,7.5;stroke-dashoffset:0;stroke-width:1.5;"/>
    </g>
    <g id="line2d_26"/>
    <g id="text_19">
     <!-- ${}^{16}$O${}^{16}$O -->
     <g transform="translate(534.168 132.431213)scale(0.1 -0.1)">
      <use transform="translate(0.957031 39.046875)scale(0.7)" xlink:href="#DejaVuSans-31"/>
      <use transform="translate(45.493164 39.046875)scale(0.7)" xlink:href="#DejaVuSans-36"/>
      <use transform="translate(92.763672 0.765625)" xlink:href="#DejaVuSans-4f"/>
      <use transform="translate(172.431641 39.046875)scale(0.7)" xlink:href="#DejaVuSans-31"/>
      <use transform="translate(216.967773 39.046875)scale(0.7)" xlink:href="#DejaVuSans-36"/>
      <use transform="translate(264.238281 0.765625)" xlink:href="#DejaVuSans-4f"/>
     </g>
    </g>
    <g id="line2d_27">
     <path d="M 506.168 143.609338 
L 526.168 143.609338 
" style="fill:none;stroke:#0000ff;stroke-linecap:square;stroke-width:1.5;"/>
    </g>
    <g id="line2d_28"/>
    <g id="text_20">
     <!-- ${}^{18}$O RAIRS -->
     <g transform="translate(534.168 147.109338)scale(0.1 -0.1)">
      <defs>
       <path d="M 2841 2188 
Q 3044 2119 3236 1894 
Q 3428 1669 3622 1275 
L 4263 0 
L 3584 0 
L 2988 1197 
Q 2756 1666 2539 1819 
Q 2322 1972 1947 1972 
L 1259 1972 
L 1259 0 
L 628 0 
L 628 4666 
L 2053 4666 
Q 2853 4666 3247 4331 
Q 3641 3997 3641 3322 
Q 3641 2881 3436 2590 
Q 3231 2300 2841 2188 
z
M 1259 4147 
L 1259 2491 
L 2053 2491 
Q 2509 2491 2742 2702 
Q 2975 2913 2975 3322 
Q 2975 3731 2742 3939 
Q 2509 4147 2053 4147 
L 1259 4147 
z
" id="DejaVuSans-52" transform="scale(0.015625)"/>
       <path d="M 2188 4044 
L 1331 1722 
L 3047 1722 
L 2188 4044 
z
M 1831 4666 
L 2547 4666 
L 4325 0 
L 3669 0 
L 3244 1197 
L 1141 1197 
L 716 0 
L 50 0 
L 1831 4666 
z
" id="DejaVuSans-41" transform="scale(0.015625)"/>
       <path d="M 628 4666 
L 1259 4666 
L 1259 0 
L 628 0 
L 628 4666 
z
" id="DejaVuSans-49" transform="scale(0.015625)"/>
       <path d="M 3425 4513 
L 3425 3897 
Q 3066 4069 2747 4153 
Q 2428 4238 2131 4238 
Q 1616 4238 1336 4038 
Q 1056 3838 1056 3469 
Q 1056 3159 1242 3001 
Q 1428 2844 1947 2747 
L 2328 2669 
Q 3034 2534 3370 2195 
Q 3706 1856 3706 1288 
Q 3706 609 3251 259 
Q 2797 -91 1919 -91 
Q 1588 -91 1214 -16 
Q 841 59 441 206 
L 441 856 
Q 825 641 1194 531 
Q 1563 422 1919 422 
Q 2459 422 2753 634 
Q 3047 847 3047 1241 
Q 3047 1584 2836 1778 
Q 2625 1972 2144 2069 
L 1759 2144 
Q 1053 2284 737 2584 
Q 422 2884 422 3419 
Q 422 4038 858 4394 
Q 1294 4750 2059 4750 
Q 2388 4750 2728 4690 
Q 3069 4631 3425 4513 
z
" id="DejaVuSans-53" transform="scale(0.015625)"/>
      </defs>
      <use transform="translate(0.957031 39.046875)scale(0.7)" xlink:href="#DejaVuSans-31"/>
      <use transform="translate(45.493164 39.046875)scale(0.7)" xlink:href="#DejaVuSans-38"/>
      <use transform="translate(92.763672 0.765625)" xlink:href="#DejaVuSans-4f"/>
      <use transform="translate(171.474609 0.765625)" xlink:href="#DejaVuSans-20"/>
      <use transform="translate(203.261719 0.765625)" xlink:href="#DejaVuSans-52"/>
      <use transform="translate(272.744141 0.765625)" xlink:href="#DejaVuSans-41"/>
      <use transform="translate(341.152344 0.765625)" xlink:href="#DejaVuSans-49"/>
      <use transform="translate(370.644531 0.765625)" xlink:href="#DejaVuSans-52"/>
      <use transform="translate(440.126953 0.765625)" xlink:href="#DejaVuSans-53"/>
     </g>
    </g>
    <g id="line2d_29">
     <path d="M 506.168 158.287463 
L 526.168 158.287463 
" style="fill:none;stroke:#ff0000;stroke-linecap:square;stroke-width:1.5;"/>
    </g>
    <g id="line2d_30"/>
    <g id="text_21">
     <!-- ${}^{16}$O RAIRS -->
     <g transform="translate(534.168 161.787463)scale(0.1 -0.1)">
      <use transform="translate(0.957031 39.046875)scale(0.7)" xlink:href="#DejaVuSans-31"/>
      <use transform="translate(45.493164 39.046875)scale(0.7)" xlink:href="#DejaVuSans-36"/>
      <use transform="translate(92.763672 0.765625)" xlink:href="#DejaVuSans-4f"/>
      <use transform="translate(171.474609 0.765625)" xlink:href="#DejaVuSans-20"/>
      <use transform="translate(203.261719 0.765625)" xlink:href="#DejaVuSans-52"/>
      <use transform="translate(272.744141 0.765625)" xlink:href="#DejaVuSans-41"/>
      <use transform="translate(341.152344 0.765625)" xlink:href="#DejaVuSans-49"/>
      <use transform="translate(370.644531 0.765625)" xlink:href="#DejaVuSans-52"/>
      <use transform="translate(440.126953 0.765625)" xlink:href="#DejaVuSans-53"/>
     </g>
    </g>
   </g>
  </g>
 </g>
 <defs>
  <clipPath id="pf7af973333">
   <rect height="460.7064" width="511.128" x="82.44" y="71.7984"/>
  </clipPath>
 </defs>
</svg>
